<svg version="1.1" id="Layer_1" xmlns="http://www.w3.org/2000/svg" xmlns:xlink="http://www.w3.org/1999/xlink" x="0px" y="0px"
	 width="100%" viewBox="0 0 1024 1024" enable-background="new 0 0 1024 1024" xml:space="preserve">
<path fill="#000000" opacity="1.000000" stroke="none" 
	d="
M819.874512,365.088501 
	C863.149841,390.117371 906.128540,414.932098 949.084961,439.785461 
	C959.749878,445.955872 970.373779,452.198792 980.955017,458.511475 
	C986.282776,461.689972 991.076538,465.490997 994.505005,470.840424 
	C1000.563416,480.293213 1000.449219,489.643585 993.833740,498.736572 
	C991.985291,501.277161 989.802734,503.574707 987.326294,506.514648 
	C1003.507385,521.356445 1003.747925,536.635071 987.411133,551.449280 
	C1002.737976,573.535339 1002.734985,576.101868 987.629883,595.731812 
	C987.631470,597.462830 989.109924,598.205383 990.084412,599.284058 
	C1002.595520,613.133240 1001.613220,627.209839 987.863098,639.376221 
	C980.329651,646.041931 970.991638,650.015137 962.503906,655.261719 
	C958.010315,658.039490 953.112549,660.206787 949.018188,663.689941 
	C949.828552,666.300415 952.076355,666.990601 953.825439,668.041321 
	C961.675354,672.757263 969.620361,677.314941 977.527161,681.936157 
	C980.699890,683.790405 983.704102,685.866150 986.375183,688.418640 
	C998.618469,700.118164 997.927612,714.321533 984.507996,724.760681 
	C977.509216,730.204956 969.547791,734.119812 961.928406,738.559692 
	C931.288818,756.413940 900.566162,774.125610 869.904297,791.941711 
	C832.475342,813.689819 795.072388,835.482666 757.665771,857.269287 
	C707.739563,886.347839 657.835938,915.465271 607.892273,944.513672 
	C583.135681,958.912598 558.659363,973.845398 533.421875,987.351318 
	C506.577454,1001.717285 478.696655,1001.572083 452.222382,986.553589 
	C390.669037,951.635132 329.569305,915.917114 268.284119,880.525940 
	C203.538162,843.136230 138.791199,805.748352 74.042183,768.363953 
	C65.966919,763.701538 57.875408,759.067200 49.793804,754.415710 
	C45.301807,751.830322 41.037258,748.943237 37.452000,745.146301 
	C28.097670,735.239624 28.298508,722.722900 38.106331,713.187805 
	C45.870975,705.639099 55.979782,701.673035 64.945312,695.957275 
	C68.968048,693.392700 73.121384,691.032959 78.135117,688.029358 
	C70.433479,683.546692 63.605930,679.544800 56.750668,675.590942 
	C50.553120,672.016418 44.048748,668.905945 38.556610,664.238708 
	C23.194653,651.183960 22.504173,636.702454 36.438923,622.111938 
	C37.000065,621.524353 37.478432,620.857727 37.990139,620.234314 
	C37.294384,617.835083 35.184780,616.829224 33.801929,615.241211 
	C23.995293,603.979858 24.017519,590.357239 34.469994,579.817017 
	C37.885963,576.372437 37.769512,574.494507 34.488323,571.051147 
	C23.672049,559.700439 23.981256,545.885864 34.807510,534.501709 
	C35.936810,533.314148 37.051426,532.112610 37.995247,531.106873 
	C37.928753,529.160461 36.569561,528.545532 35.671082,527.641663 
	C23.153021,515.048706 23.641464,499.163879 37.090828,487.500580 
	C39.839718,485.116730 42.936451,483.061890 46.088642,481.225891 
	C114.312660,441.488861 182.569977,401.809021 250.815292,362.108582 
	C313.301178,325.758606 375.763733,289.368500 438.273163,253.059052 
	C456.275452,242.602188 474.173889,231.930267 492.543671,222.153091 
	C509.032288,213.377197 526.824036,211.490570 545.428345,213.875366 
	C563.306763,216.167130 577.813782,225.496368 592.786499,234.128998 
	C635.343323,258.665405 677.901794,283.198975 720.458252,307.735992 
	C753.496460,326.785004 786.532593,345.837555 819.874512,365.088501 
M36.837387,501.531128 
	C34.142269,506.958221 34.751930,512.127014 37.953300,517.154602 
	C40.531017,521.202637 44.107864,524.139709 48.177544,526.514526 
	C60.545723,533.731812 72.928093,540.924988 85.329842,548.084473 
	C132.924622,575.560852 180.538239,603.004639 228.127151,630.491150 
	C266.485321,652.646118 304.820953,674.840027 343.161194,697.026001 
	C379.914612,718.293762 416.438507,739.971191 453.486359,760.712830 
	C479.659119,775.366028 506.906311,775.717041 533.046997,760.755615 
	C597.230347,724.020996 661.067383,686.680908 725.003662,649.515442 
	C780.013062,617.539185 834.968933,585.470764 889.940308,553.429199 
	C892.735840,551.799744 895.965027,550.778503 898.446838,547.950134 
	C897.024780,546.977539 895.999573,546.172485 894.882202,545.527161 
	C849.751038,519.460999 804.611755,493.408630 759.472839,467.355804 
	C692.993896,428.986237 626.520752,390.606750 560.033264,352.252136 
	C515.318420,326.457581 470.571014,300.719391 425.886810,274.871979 
	C423.263458,273.354492 421.289398,273.196960 418.580658,274.776062 
	C391.247223,290.710144 363.795105,306.440460 336.445312,322.346680 
	C272.977692,359.258423 209.564880,396.264435 146.096268,433.174438 
	C114.430298,451.589691 82.690727,469.878357 50.983982,488.223480 
	C45.455971,491.421936 40.252548,494.973846 36.837387,501.531128 
M508.107574,312.365723 
	C516.065125,316.894257 524.046936,321.380554 531.976318,325.957916 
	C604.074524,367.577759 676.171448,409.199890 748.252686,450.849152 
	C799.865784,480.671753 851.474854,510.501678 903.008423,540.461304 
	C906.482727,542.481140 909.119080,542.636169 912.576782,540.580750 
	C927.320251,531.816711 942.292175,523.435791 957.007324,514.625427 
	C965.285889,509.668823 974.143250,505.601135 981.684387,499.483368 
	C993.129822,490.198181 992.744629,477.164734 980.904968,468.408142 
	C979.434998,467.320953 977.882385,466.330048 976.299133,465.413757 
	C947.337402,448.653015 918.365295,431.910187 889.395020,415.164124 
	C850.333069,392.584686 811.280884,369.988434 772.206482,347.430542 
	C707.899292,310.305695 643.568542,273.221466 579.270264,236.081192 
	C567.539185,229.305008 555.667480,223.148666 541.805359,221.865921 
	C525.507751,220.357758 509.737122,222.172318 495.350861,230.142776 
	C475.697296,241.031479 456.425476,252.610352 437.031219,263.963745 
	C435.402161,264.917419 433.321869,265.589935 432.594727,268.452942 
	C457.489685,282.932648 482.479492,297.467499 508.107574,312.365723 
M321.313507,729.115845 
	C364.738312,754.167297 408.151794,779.238281 451.592041,804.262939 
	C479.575562,820.383484 507.782745,820.285034 535.594421,804.254395 
	C593.615356,770.811340 651.427551,737.006348 709.333740,703.364197 
	C770.839172,667.630859 832.357910,631.920288 893.844849,596.155090 
	C895.481567,595.203064 897.609619,594.628235 898.378052,591.849731 
	C891.876648,588.091553 884.871582,584.844543 878.817139,580.324280 
	C872.335815,575.485229 867.489441,576.329346 860.701172,580.328369 
	C802.161316,614.814941 743.339294,648.822510 684.601746,682.973572 
	C636.806885,710.762329 588.898987,738.359192 541.268372,766.426636 
	C519.124695,779.475220 495.827881,782.602478 471.072418,777.150818 
	C458.305176,774.339233 447.524506,767.172791 436.437805,760.778748 
	C374.548279,725.085571 312.711823,689.300476 250.842163,653.572876 
	C205.122650,627.171509 159.374863,600.819092 113.650146,574.426697 
	C92.738228,562.356323 71.860367,550.226929 50.937401,538.175781 
	C49.152435,537.147644 47.460213,535.632385 44.966980,536.885132 
	C37.051880,540.861938 33.109035,552.113159 37.038414,560.082886 
	C39.805496,565.695129 44.550869,569.307007 49.806530,572.353760 
	C66.088585,581.792603 82.360291,591.249451 98.663322,600.652039 
	C132.711212,620.288696 166.790131,639.871521 200.831253,659.519836 
	C240.788788,682.583069 280.719696,705.692261 321.313507,729.115845 
M563.156799,842.722168 
	C555.964294,846.911011 548.738220,851.043518 541.585022,855.298462 
	C511.485016,873.203064 480.504120,874.481201 449.913971,857.812439 
	C416.146851,839.412476 383.174957,819.551697 349.880402,800.286194 
	C307.936005,776.015625 266.037506,751.665833 224.078613,727.420471 
	C185.152527,704.927612 146.172638,682.527893 107.217255,660.085815 
	C88.315933,649.196777 69.430351,638.280151 50.490757,627.458069 
	C48.889126,626.542847 47.199501,624.620911 45.050911,626.132263 
	C38.010460,631.084534 31.656265,640.398193 37.350277,650.192932 
	C40.793751,656.116333 46.175709,659.587036 51.825974,662.851929 
	C118.439720,701.343140 185.058655,739.825378 251.673813,778.314148 
	C319.155640,817.303589 386.480438,856.568481 454.193970,895.151245 
	C479.829529,909.758240 506.864502,909.611633 532.400452,895.150635 
	C587.325256,864.046570 641.692261,831.957153 696.273254,800.246338 
	C761.511475,762.343689 826.741211,724.426208 891.936829,686.450378 
	C894.104797,685.187561 896.806824,684.391357 898.325989,681.542664 
	C889.285583,676.368286 880.459412,671.378296 871.706848,666.262329 
	C869.594055,665.027283 867.945435,665.691895 866.147949,666.754456 
	C859.698059,670.567322 853.246338,674.377869 846.760315,678.128723 
	C804.097412,702.800720 761.389404,727.395081 718.765320,752.133911 
	C667.067200,782.139465 615.437378,812.262756 563.156799,842.722168 
M194.642548,665.894958 
	C164.487885,648.517029 134.329193,631.146057 104.180107,613.758484 
	C86.436607,603.525513 68.704643,593.272522 50.978020,583.010315 
	C48.768559,581.731262 46.754635,580.583740 44.056019,582.191406 
	C34.886555,587.653992 32.502636,599.858276 39.166126,608.247009 
	C41.676460,611.407288 44.755489,613.966187 48.249279,615.989319 
	C99.267380,645.531128 150.275467,675.090271 201.317612,704.590454 
	C252.210587,734.004517 303.123444,763.384155 354.057343,792.727234 
	C388.834167,812.762268 423.287109,833.403931 458.599457,852.449463 
	C481.925659,865.030396 506.491211,863.494873 530.159058,851.894470 
	C538.361938,847.873901 545.982727,842.672546 553.906311,838.074280 
	C616.722900,801.619751 679.560608,765.201599 742.367004,728.729492 
	C783.996216,704.554993 825.587402,680.315002 867.189514,656.093689 
	C877.505066,650.087830 887.796570,644.040833 899.140564,637.403442 
	C890.508667,632.432129 882.635681,628.216736 875.116272,623.444092 
	C870.808594,620.710083 867.346802,621.167480 863.162781,623.612122 
	C815.143311,651.668762 767.053650,679.605286 718.973755,707.558472 
	C658.510132,742.711487 598.196472,778.126831 537.499329,812.872070 
	C509.571991,828.858765 480.426025,828.665100 451.950745,814.136902 
	C434.621124,805.295227 418.130493,794.810913 401.248077,785.090393 
	C367.766815,765.812622 334.257446,746.583557 300.792694,727.277161 
	C265.600220,706.973938 230.446304,686.604004 194.642548,665.894958 
M920.485168,635.050232 
	C906.771423,643.028931 892.834106,650.646118 879.642944,659.204590 
	C880.667847,661.811157 882.300171,662.374634 883.720642,663.189331 
	C890.219055,666.916443 896.884094,670.387573 903.151184,674.469788 
	C906.631226,676.736511 909.288757,676.540161 912.691406,674.532776 
	C929.752808,664.467285 946.969360,654.664856 964.034912,644.606384 
	C970.472717,640.811829 977.359314,637.636780 982.942932,632.546448 
	C992.956482,623.417542 992.766846,613.430969 982.794617,604.287598 
	C980.081421,601.799927 977.961365,601.339966 974.534729,603.391357 
	C956.830505,613.990295 938.938049,624.274719 920.485168,635.050232 
M951.284485,527.800720 
	C927.318542,541.702087 903.352661,555.603394 879.331787,569.536560 
	C881.023987,572.535278 883.327881,573.319275 885.277283,574.473816 
	C891.291138,578.035583 897.490723,581.293396 903.409973,585.001526 
	C906.823669,587.140076 909.613770,587.061218 913.069519,585.005737 
	C928.666016,575.728638 944.420959,566.718567 960.073914,557.535645 
	C967.251831,553.324707 974.639587,549.373352 981.377014,544.531616 
	C992.711609,536.386414 993.138000,523.878357 983.094482,514.888062 
	C980.343689,512.425659 978.021484,511.920166 974.710266,513.993347 
	C967.236877,518.672485 959.533508,522.984375 951.284485,527.800720 
M932.029541,618.493896 
	C943.405884,611.914917 954.810486,605.384094 966.146729,598.736877 
	C971.879028,595.375488 977.852356,592.349426 982.879028,587.908325 
	C992.398010,579.497925 992.654114,568.593811 983.700378,560.210083 
	C980.980103,557.662964 978.664734,556.874023 974.974915,559.028809 
	C944.394409,576.887268 913.671326,594.501282 883.025024,612.247498 
	C881.715637,613.005676 879.838440,613.515808 879.809814,616.301208 
	C888.350769,621.163757 897.137695,626.160156 905.917236,631.169495 
	C907.805786,632.246948 909.412415,631.481628 911.052002,630.531738 
	C917.816162,626.613037 924.596191,622.721741 932.029541,618.493896 
z"/>
<path fill="#000000" opacity="1.000000" stroke="none" 
	d="
M159.346558,284.715576 
	C124.685310,264.754364 90.416817,244.838882 55.905224,225.353958 
	C49.198078,221.567154 46.412014,217.446457 46.542206,209.351120 
	C47.112946,173.863098 46.900440,138.361038 46.767399,102.864838 
	C46.748871,97.921089 48.458729,94.864845 52.721188,92.404793 
	C88.212624,71.921104 123.629784,51.308498 159.024307,30.657562 
	C162.093613,28.866779 164.644455,28.746132 167.807114,30.586351 
	C197.458252,47.839153 227.186798,64.958893 256.890228,82.121819 
	C263.088837,85.703415 269.230164,89.387268 275.486572,92.864349 
	C279.043854,94.841339 280.420746,97.392570 280.530853,101.678680 
	C281.095062,123.636459 279.878693,145.581345 280.480591,167.543106 
	C280.913849,183.353607 280.255615,199.191940 280.259155,215.017822 
	C280.259979,218.735001 278.430756,220.931717 275.542755,222.605652 
	C244.859482,240.390060 214.161926,258.149811 183.478760,275.934448 
	C178.435074,278.857880 173.406586,281.810883 168.438812,284.860626 
	C165.458740,286.690063 162.596619,287.117889 159.346558,284.715576 
M176.920242,45.643219 
	C173.609848,43.719574 170.237152,41.893791 167.009750,39.839745 
	C164.644440,38.334362 162.630753,38.249699 160.110428,39.724525 
	C128.792740,58.050739 97.413673,76.272003 66.071106,94.555779 
	C64.416611,95.520935 62.318325,96.102936 61.733425,98.331551 
	C62.679222,100.384743 64.694710,101.029854 66.382805,102.006699 
	C97.508400,120.018089 128.668259,137.970367 159.772278,156.018875 
	C162.660690,157.694931 165.080139,157.955017 168.084000,156.199875 
	C199.710861,137.720367 231.400375,119.348122 263.063019,100.929802 
	C264.296814,100.212105 265.915466,99.829979 266.264404,97.324684 
	C236.820236,80.299217 207.182129,63.161594 176.920242,45.643219 
M205.622391,144.185944 
	C196.125565,149.688553 186.918930,155.802887 177.035889,160.491333 
	C169.732971,163.955795 168.106140,169.094147 168.137741,176.274567 
	C168.271835,206.739441 168.144501,237.205414 168.152893,267.670990 
	C168.153412,269.585175 167.629868,271.679565 169.267075,273.363312 
	C170.741730,273.702789 171.860611,272.883423 172.978882,272.234039 
	C204.205917,254.101074 235.399490,235.910172 266.673950,217.859421 
	C270.424835,215.694504 271.954529,213.055054 271.939575,208.668854 
	C271.829559,176.372162 271.952118,144.074722 271.945190,111.777534 
	C271.944824,110.086700 272.664276,108.067406 270.248871,106.500130 
	C249.018997,118.864021 227.624969,131.323517 205.622391,144.185944 
z"/>
<path fill="#000000" opacity="1.000000" stroke="none" 
	d="
M846.020630,189.998474 
	C860.012451,181.858810 873.719177,173.954742 887.339600,165.904541 
	C890.244568,164.187576 892.738464,164.022095 895.703857,165.751785 
	C918.860046,179.258682 942.054138,192.700851 965.283142,206.082077 
	C968.883484,208.156097 970.232910,210.993256 970.212158,215.096878 
	C970.092468,238.754456 970.065918,262.413330 970.199280,286.070648 
	C970.223572,290.382477 968.876770,293.117218 965.011719,295.326538 
	C941.887268,308.544861 918.866638,321.945831 895.882019,335.406464 
	C893.091614,337.040619 890.880188,337.128357 888.064880,335.493256 
	C864.600342,321.865417 841.064636,308.360138 817.552368,294.814362 
	C814.596436,293.111420 812.941101,290.753967 812.970154,287.129181 
	C813.164368,262.821106 813.354187,238.512009 813.293701,214.203857 
	C813.283813,210.240829 814.948792,207.990677 818.034729,206.206741 
	C827.262390,200.872589 836.481995,195.524521 846.020630,189.998474 
M912.927185,185.631805 
	C907.013000,182.224411 901.052612,178.893692 895.207275,175.372101 
	C892.852905,173.953720 890.895508,173.596909 888.334045,175.112610 
	C869.000122,186.553009 849.585388,197.856796 830.202820,209.215073 
	C829.231934,209.783981 828.042725,210.209579 827.992737,211.977066 
	C829.050232,212.713867 830.196716,213.641129 831.457153,214.371597 
	C849.891541,225.054672 868.401123,235.610001 886.738342,246.456970 
	C890.570190,248.723648 893.551270,248.541641 897.256042,246.368393 
	C915.920959,235.419449 934.710510,224.683121 953.425659,213.819382 
	C954.464844,213.216125 956.064148,212.914398 955.969421,210.582397 
	C941.996216,202.478027 927.782288,194.234055 912.927185,185.631805 
M896.185608,321.542297 
	C896.926147,326.168549 899.403870,323.546753 901.117493,322.560028 
	C919.728027,311.844116 938.261169,300.993500 956.893921,290.316772 
	C960.301392,288.364258 961.812317,285.986908 961.783020,281.945221 
	C961.641479,262.460999 961.773865,242.974915 961.774231,223.489487 
	C961.774231,222.230774 962.155518,220.764709 960.624878,219.846863 
	C960.202026,219.926239 959.653503,219.893158 959.257629,220.123032 
	C939.542175,231.570328 919.865845,243.085236 900.108398,254.459396 
	C897.094788,256.194244 896.100586,258.441803 896.115662,261.775330 
	C896.204834,281.426575 896.154358,301.078430 896.185608,321.542297 
z"/>
<path fill="#000000" opacity="1.000000" stroke="none" 
	d="
M346.313538,74.303360 
	C355.542755,66.406013 365.463928,64.340256 376.168243,69.791931 
	C386.467651,75.037415 391.671967,83.740471 391.083618,95.355797 
	C390.363586,109.570549 376.951172,120.827370 362.717590,119.552811 
	C347.598633,118.198967 337.132660,105.655144 338.482452,90.957443 
	C339.078461,84.467377 341.763000,79.203346 346.313538,74.303360 
z"/>
<path fill="#000000" opacity="1.000000" stroke="none" 
	d="
M77.760315,335.760742 
	C81.425446,332.109741 84.829254,328.697357 88.264938,325.317413 
	C91.286545,322.344788 94.224083,322.213806 97.318260,325.381592 
	C103.356628,331.563690 109.479904,337.663910 115.629295,343.735992 
	C118.754906,346.822327 118.625847,349.862610 115.675735,352.848907 
	C109.485970,359.114563 103.245209,365.330353 96.981819,371.522522 
	C94.261475,374.211884 91.366386,374.236847 88.647316,371.540741 
	C82.274727,365.221954 75.973831,358.830994 69.628288,352.484833 
	C66.659622,349.515869 67.000061,346.654480 69.807503,343.819550 
	C72.380127,341.221680 74.944725,338.615814 77.760315,335.760742 
z"/>
<path fill="#000000" opacity="1.000000" stroke="none" 
	d="
M826.479126,86.574898 
	C832.763123,93.067345 832.762756,94.003281 826.644714,100.137535 
	C821.481506,105.314461 816.354553,110.529282 811.112183,115.625069 
	C807.092834,119.531975 804.909607,119.580498 800.945618,115.697273 
	C795.011414,109.884186 789.278015,103.866669 783.378479,98.017479 
	C780.093506,94.760506 780.272156,91.793427 783.474426,88.590584 
	C789.465149,82.598740 795.345276,76.496330 801.266785,70.435326 
	C804.311829,67.318474 807.299805,67.442070 810.332397,70.487816 
	C815.608276,75.786591 820.920471,81.049141 826.479126,86.574898 
z"/>
<path fill="#000000" opacity="1.000000" stroke="none" 
	d="
M555.894043,187.266174 
	C545.480713,188.914902 537.909668,184.485519 535.316833,175.527084 
	C533.126404,167.958969 537.487610,159.661301 545.497742,156.156708 
	C553.066162,152.845352 561.745544,156.293442 566.051086,164.321930 
	C569.970093,171.629593 567.601257,180.368164 560.297058,185.250732 
	C559.073914,186.068329 557.631165,186.557312 555.894043,187.266174 
z"/>
<path fill="#000000" opacity="1.000000" stroke="none" 
	d="
M939.054810,388.307129 
	C932.513794,383.799408 929.511780,377.927551 931.135925,370.451874 
	C932.469971,364.311371 936.589172,360.247009 942.637878,358.386932 
	C949.221313,356.362427 956.349854,358.777069 960.467651,364.269501 
	C964.447754,369.578247 964.782104,376.929474 961.300720,382.585846 
	C957.716736,388.408936 950.908630,391.425629 944.095764,390.080414 
	C942.484619,389.762299 940.952148,389.046021 939.054810,388.307129 
z"/>
<path fill="#000000" opacity="1.000000" stroke="none" 
	d="
M565.970154,634.117371 
	C505.385925,599.147949 445.113953,564.372742 384.869019,529.550781 
	C334.425293,500.393982 284.012329,471.184021 233.589584,441.990936 
	C231.164841,440.587097 228.102737,439.491547 228.037949,436.152252 
	C227.971649,432.735413 231.139755,431.681549 233.523529,430.293152 
	C284.751007,400.455658 336.000763,370.656403 387.237457,340.834717 
	C400.333466,333.212372 413.434845,325.597870 426.454529,317.846649 
	C429.670776,315.931885 432.281250,315.876740 435.654938,317.833344 
	C503.638763,357.260773 571.684265,396.582092 639.739502,435.886383 
	C693.947754,467.193604 748.192200,498.438263 802.390625,529.762512 
	C805.030823,531.288391 808.853271,532.247375 808.924194,535.974915 
	C809.000610,539.992859 805.017639,540.991272 802.237610,542.610046 
	C738.654785,579.631592 675.022217,616.567932 611.505432,653.702271 
	C607.090515,656.283325 603.685974,656.052734 599.556824,653.588684 
	C588.550110,647.020691 577.392029,640.706421 565.970154,634.117371 
M390.073425,522.405762 
	C417.910004,538.473145 445.744598,554.543884 473.583649,570.606995 
	C513.109436,593.413391 552.655151,616.185486 592.157288,639.032715 
	C605.805969,646.926880 605.711304,646.929016 619.015930,639.203308 
	C672.315308,608.253357 725.665588,577.390869 778.936646,546.392334 
	C784.438416,543.190796 790.369629,540.550964 795.615601,535.920593 
	C793.698730,534.721497 792.336182,533.807068 790.917114,532.991028 
	C775.616577,524.192078 760.288269,515.441162 745.003784,506.614349 
	C706.356506,484.295410 667.739807,461.923492 629.088501,439.611481 
	C584.812256,414.052399 540.507629,388.542480 496.224030,362.996002 
	C476.172852,351.428772 456.115387,339.871948 436.130035,328.191772 
	C432.772919,326.229797 429.949036,325.796783 426.469849,328.043121 
	C420.460938,331.922791 414.191223,335.402130 407.996674,338.990295 
	C354.540619,369.954468 301.070892,400.895111 247.638138,431.899445 
	C245.606903,433.078094 243.066910,433.857361 241.817032,436.789978 
	C291.149567,465.278381 340.294769,493.658600 390.073425,522.405762 
z"/>
<path fill="#000000" opacity="1.000000" stroke="none" 
	d="
M123.323364,494.282410 
	C140.932846,484.071808 158.285721,474.147186 175.460190,463.922882 
	C178.894623,461.878296 181.319534,462.902252 184.171127,464.557037 
	C211.824097,480.603790 239.486435,496.634613 267.172058,512.625000 
	C304.232635,534.030090 341.308411,555.409058 378.396912,576.765808 
	C385.703461,580.973145 385.869537,584.017761 378.622314,588.260803 
	C356.353180,601.298523 334.013184,614.215210 311.750305,627.263550 
	C308.112732,629.395569 304.998535,629.677490 301.104858,627.421631 
	C246.065430,595.533997 190.939377,563.795837 135.838547,532.014099 
	C126.030174,526.356750 116.223526,520.696045 106.448921,514.980713 
	C99.729324,511.051636 99.796547,508.019684 106.606361,504.034515 
	C112.068695,500.837952 117.537880,497.653107 123.323364,494.282410 
M157.755432,534.693848 
	C158.600220,535.228516 159.426743,535.794861 160.292404,536.293274 
	C207.490005,563.466736 254.708420,590.604248 301.854156,617.867432 
	C305.209137,619.807556 307.814453,619.659302 311.047638,617.748352 
	C328.829895,607.238525 346.725586,596.920837 364.535858,586.458008 
	C366.320801,585.409424 368.573120,584.773926 369.642700,582.117310 
	C368.338470,581.225403 367.055023,580.217590 365.655090,579.412292 
	C358.725922,575.426453 351.740143,571.538635 344.820953,567.535706 
	C291.195129,536.511841 237.565338,505.494751 183.998047,474.370056 
	C180.751236,472.483551 178.186920,472.131287 174.832870,474.116943 
	C156.202545,485.146332 137.454056,495.975983 118.761780,506.901031 
	C117.547523,507.610718 115.871666,507.997894 115.886345,510.435272 
	C129.511917,518.324829 143.320831,526.320496 157.755432,534.693848 
z"/>
<path fill="#000000" opacity="1.000000" stroke="none" 
	d="
M433.371490,703.692749 
	C411.134827,690.880127 389.171814,678.326355 367.312683,665.594177 
	C363.886536,663.598511 358.595581,662.621277 358.585724,657.664368 
	C358.576324,652.934570 363.769379,651.991272 367.019958,650.071472 
	C387.660858,637.881226 408.563660,626.131104 429.105927,613.779846 
	C434.329437,610.639160 438.257050,610.942993 443.246338,613.888794 
	C468.182068,628.611084 493.271149,643.073975 518.324341,657.596985 
	C529.411743,664.024231 540.549377,670.364685 551.649963,676.769348 
	C558.958923,680.986450 558.975647,684.099915 551.807251,688.260742 
	C529.933350,700.957092 507.983490,713.526672 486.269196,726.490662 
	C481.282471,729.467896 477.360046,729.413574 472.510254,726.485718 
	C459.691986,718.747070 446.638947,711.397400 433.371490,703.692749 
M488.567963,714.985107 
	C506.641205,704.506897 524.714478,694.028748 542.654236,683.627869 
	C541.640808,680.731201 539.834351,680.087158 538.296082,679.181641 
	C533.419495,676.310913 528.522217,673.475037 523.621460,670.645630 
	C495.796234,654.580872 467.946014,638.559204 440.172089,622.406311 
	C437.232758,620.696899 434.940521,620.542908 431.936157,622.323242 
	C414.467438,632.674561 396.868469,642.805847 379.359894,653.090393 
	C377.027710,654.460327 374.256897,655.380066 372.521027,658.039734 
	C373.420807,658.739868 374.009949,659.317444 374.701324,659.718994 
	C406.802429,678.364868 439.010376,696.830322 470.937836,715.768616 
	C477.231171,719.501648 482.375732,720.311707 488.567963,714.985107 
z"/>
<path fill="#000000" opacity="1.000000" stroke="none" 
	d="
M547.113403,277.924133 
	C535.818542,271.461731 524.832031,265.195404 513.853210,258.915771 
	C512.987244,258.420471 512.124084,257.895386 511.346588,257.275085 
	C509.408325,255.728622 507.825470,253.884415 509.417969,251.327469 
	C511.021973,248.752029 513.243958,248.586655 515.866089,250.114090 
	C523.201538,254.386948 530.627502,258.504059 537.981262,262.745880 
	C588.446594,291.855438 638.906494,320.974518 689.357117,350.109528 
	C696.131470,354.021698 702.930969,357.902405 709.554199,362.059937 
	C713.700378,364.662537 713.930603,367.707458 710.704895,369.948792 
	C708.634216,371.387573 706.937744,370.413300 705.174622,369.390198 
	C674.367737,351.513275 643.572449,333.616241 612.745972,315.773193 
	C590.994080,303.182678 569.199341,290.666290 547.113403,277.924133 
z"/>
<path fill="#000000" opacity="1.000000" stroke="none" 
	d="
M830.131470,452.659119 
	C830.096069,446.396149 833.878235,443.130463 838.619873,441.093048 
	C848.409790,436.886383 858.374939,436.881012 868.168457,441.244141 
	C872.643494,443.237854 876.382690,446.523743 876.666565,451.539825 
	C876.948853,456.528259 873.116943,459.699066 868.992371,461.756226 
	C858.298096,467.089935 847.495300,466.760773 836.941467,461.299774 
	C833.637695,459.590240 831.074463,456.914642 830.131470,452.659119 
z"/>
<path fill="#000000" opacity="1.000000" stroke="none" 
	d="
M816.444214,435.778381 
	C806.737183,438.441528 797.631958,438.092743 788.954285,433.570740 
	C784.954102,431.486237 781.762573,428.470642 781.815369,423.567322 
	C781.865906,418.872681 785.002625,415.990417 788.843384,414.025421 
	C799.286865,408.682434 809.930420,408.636627 820.442871,413.714905 
	C824.778381,415.809265 828.582336,419.159668 828.118408,424.410187 
	C827.544128,430.910553 822.388672,433.685944 816.444214,435.778381 
z"/>
<path fill="#000000" opacity="1.000000" stroke="none" 
	d="
M918.507263,470.301697 
	C927.347900,477.066864 927.211853,484.047882 917.844421,489.222809 
	C907.027710,495.198303 895.658936,494.989929 884.935303,489.056946 
	C875.787354,483.995728 876.004639,475.152374 885.230164,470.098419 
	C896.076538,464.156555 907.204895,464.633484 918.507263,470.301697 
z"/>
<path fill="#000000" opacity="1.000000" stroke="none" 
	d="
M590.976196,527.071777 
	C574.385986,536.580872 556.753113,541.603271 538.223633,543.680786 
	C507.777710,547.094421 478.437042,543.333252 450.836395,529.454285 
	C439.676270,523.842407 429.911835,516.297913 423.442627,505.355591 
	C414.711517,490.587494 415.942108,475.039703 426.693268,461.667664 
	C437.880554,447.753082 453.140747,440.220734 469.667847,434.809235 
	C492.718048,427.261871 516.450134,426.037598 540.233643,428.980652 
	C562.408020,431.724579 583.612061,438.107117 601.201599,452.874146 
	C612.025330,461.960999 619.848572,472.884094 619.179199,487.935333 
	C618.606873,500.805145 611.768677,510.451172 602.553284,518.628357 
	C599.085510,521.705444 595.067932,524.162903 590.976196,527.071777 
M547.299438,488.130890 
	C545.303345,481.443695 543.213440,474.782532 541.345337,468.059753 
	C540.178101,463.859070 537.382263,462.729980 533.423889,462.982422 
	C530.779053,463.151123 528.713806,464.528046 526.575684,465.781158 
	C513.241760,473.595581 499.900391,481.398010 486.625671,489.312103 
	C484.369537,490.657166 480.239410,491.092346 480.997406,494.592041 
	C481.699432,497.833160 485.667419,497.307953 488.313843,497.613983 
	C503.991730,499.426941 519.690674,501.063354 535.393372,502.652008 
	C538.695374,502.986084 542.048279,503.041138 545.367432,502.926361 
	C550.165649,502.760437 551.222168,501.067017 549.779297,496.558899 
	C548.968933,494.026855 548.274780,491.457642 547.299438,488.130890 
z"/>
</svg>